<svg xmlns="http://www.w3.org/2000/svg" xmlns:svg="http://www.w3.org/2000/svg" id="svg5832" width="750" height="750" fill="#313233" preserveAspectRatio="xMidYMid meet" version="1.1" viewBox="0 0 198.437 198.438"><metadata id="metadata5837"/><g id="layer1" transform="translate(0,-98.562324)"><g style="fill:#fff" id="g6437" transform="matrix(0.14293071,0,0,0.14293071,33.399156,131.96148)"><path id="path6439" d="m 552.6,460.5 -92.1,-92.1 -92.1,92.1 92.1,92.1 z" style="fill:#fff"/><path id="path6441" d="M 835.8,375.3 829,368.5 736.9,276.4 644.8,184.3 543.1,82.5 460.5,0 l -92.1,92.1 74.7,74.8 109.5,109.5 92.1,92.1 92.1,92.1 -92.1,92.1 -74.9,74.9 -109.3,109.2 -92.1,-92.1 -92.1,-92.1 -85,-85 -7.1,-7.1 103.4,-103.4 80.8,-80.8 -92.1,-92.1 -92.1,92.1 -92.1,92.1 -92.1,92.1 92.1,92.1 92.1,92.1 92.1,92.1 92.1,92.1 92.1,92.1 92.1,-92.1 92.1,-92.1 92.1,-92.1 92.1,-92.1 92.1,-92.1 -77.3,-77.3 z" style="fill:#fff"/></g></g></svg>